<?xml version="1.0" encoding="UTF-8" standalone="no"?>
<!-- Created with Inkscape (http://www.inkscape.org/) -->

<svg
   version="1.1"
   id="svg1"
   width="1776.735"
   height="232.15919"
   viewBox="0 0 1776.735 232.15919"
   xml:space="preserve"
   xmlns="http://www.w3.org/2000/svg"
   xmlns:svg="http://www.w3.org/2000/svg"><defs
     id="defs1" /><g
     id="g9"
     style="fill:#37ecff;fill-opacity:1"
     transform="translate(-35.577342,-96.603739)"><rect
       style="display:none;fill:#010326;fill-opacity:1;stroke-width:128.065;stroke-miterlimit:7;paint-order:stroke markers fill"
       id="rect9"
       width="1919.1165"
       height="475.99252"
       x="-35.613445"
       y="-25.312918"
       ry="0" /><path
       style="font-size:192px;font-family:'Geometr415 Blk BT';-inkscape-font-specification:'Geometr415 Blk BT';fill:#37ecff;fill-opacity:1;stroke:#000000;stroke-width:0;stroke-miterlimit:7;paint-order:markers fill stroke"
       d="M 1692.1717,320.55459 V 149.37317 h -68.801 v -45.22055 h 188.9416 v 45.22055 h -68.5026 v 171.18142 z"
       id="path8" /><path
       style="font-size:192px;font-family:'Geometr415 Blk BT';-inkscape-font-specification:'Geometr415 Blk BT';fill:#37ecff;fill-opacity:1;stroke:#000000;stroke-width:0;stroke-miterlimit:7;paint-order:markers fill stroke"
       d="m 1469.9493,259.36507 q 19.9986,12.2379 33.8782,17.16291 14.0287,4.92501 27.3114,4.92501 13.4318,0 21.4909,-5.82046 8.2084,-5.96971 8.2084,-15.22276 0,-13.28261 -28.9532,-29.84855 -4.6265,-2.68637 -7.1636,-4.1788 l -14.6257,-8.20835 q -21.3418,-12.08866 -31.6396,-27.31142 -10.2977,-15.22276 -10.2977,-34.47507 0,-26.11747 19.7,-42.83266 19.7001,-16.715188 50.8918,-16.715188 11.4917,0 24.9235,2.686369 13.4319,2.686369 29.8486,8.357589 v 50.74254 q -15.6705,-9.85002 -29.6993,-15.22277 -14.0288,-5.37273 -23.8789,-5.37273 -10.8947,0 -17.1629,4.77577 -6.2682,4.62652 -6.2682,12.68563 0,5.67122 3.7311,10.59623 3.7311,4.92502 11.1932,8.95456 l 25.3713,14.02882 q 31.7887,17.61064 42.6835,32.53491 11.0439,14.92428 11.0439,35.37053 0,31.63947 -21.6402,51.19027 -21.491,19.40155 -57.16,19.40155 -12.0887,0 -26.2667,-2.53713 -14.178,-2.53712 -31.1918,-7.90986 z"
       id="path7" /><path
       style="font-size:192px;font-family:'Geometr415 Blk BT';-inkscape-font-specification:'Geometr415 Blk BT';fill:#37ecff;fill-opacity:1;stroke:#000000;stroke-width:0;stroke-miterlimit:7;paint-order:markers fill stroke"
       d="M 1305.9315,320.55459 V 104.15262 h 133.2738 v 44.62359 h -83.1281 v 39.10158 h 71.1887 v 44.3251 h -71.1887 v 42.83266 h 84.3221 v 45.51904 z"
       id="path6" /><path
       style="font-size:192px;font-family:'Geometr415 Blk BT';-inkscape-font-specification:'Geometr415 Blk BT';fill:#37ecff;fill-opacity:1;stroke:#000000;stroke-width:0;stroke-miterlimit:7;paint-order:markers fill stroke"
       d="m 1263.0988,200.41418 v 105.21614 q -21.7894,10.89471 -42.5341,16.4167 -20.5955,5.52198 -39.9971,5.52198 -49.3993,0 -82.0835,-32.53492 -32.5349,-32.68416 -32.5349,-82.38199 0,-50.14555 32.9827,-82.97896 33.1318,-32.833398 83.7252,-32.833398 19.103,0 36.4152,5.223498 17.3121,5.22349 33.2811,15.81973 l -5.5219,54.17511 q -15.0736,-15.22276 -29.9979,-22.23716 -14.9242,-7.16366 -31.341,-7.16366 -29.1023,0 -48.2053,19.5508 -19.1031,19.40155 -19.1031,48.65313 0,30.744 18.3568,50.2948 18.5061,19.40156 47.6084,19.40156 6.716,0 13.5812,-1.19394 6.8652,-1.19395 14.3273,-3.43259 v -31.49022 h -41.0418 v -44.02661 z"
       id="path5" /><path
       style="font-size:192px;font-family:'Geometr415 Blk BT';-inkscape-font-specification:'Geometr415 Blk BT';fill:#37ecff;fill-opacity:1;stroke:#000000;stroke-width:0;stroke-miterlimit:7;paint-order:markers fill stroke"
       d="M 842.53284,320.55459 V 97.138217 h 4.92501 L 982.22405,223.39757 V 104.15262 h 47.60845 v 224.61032 h -4.4773 L 890.14128,202.50359 v 118.051 z"
       id="path4" /><path
       id="path3"
       style="font-size:192px;font-family:'Geometr415 Blk BT';-inkscape-font-specification:'Geometr415 Blk BT';display:none;fill:#37ecff;fill-opacity:1;stroke:#000000;stroke-width:0;stroke-miterlimit:7;paint-order:markers fill stroke"
       d="m 421.48242,53.203125 c -9.75173,0.208879 -19.41753,2.674108 -28.13547,7.033362 -9.44657,4.642298 -17.49772,11.833313 -23.75245,20.251369 -1.51731,2.038025 -2.90921,4.168139 -4.19411,6.3598 -0.17394,0.321166 -0.57752,1.020712 -0.83789,1.488282 -5.8501,10.582207 -8.62677,22.709742 -8.65161,34.763202 -0.0948,12.49747 2.68158,25.15217 8.91713,36.0499 5.02224,8.84395 11.95268,16.61862 20.20165,22.5722 11.4044,8.22289 25.52977,12.55259 39.58113,12.19076 10.36602,-0.16689 20.65277,-2.91098 29.77388,-7.82733 9.13594,-4.82953 17.05364,-11.8603 23.09424,-20.23278 7.28789,-9.93006 11.46257,-21.95488 12.60248,-34.17706 0.60381,-6.32907 0.50491,-12.72782 -0.32359,-19.03225 -0.0537,-0.3887 -0.17026,-1.16999 -0.24804,-1.70899 -1.53203,-9.64987 -4.94814,-19.043544 -10.25527,-27.264201 -5.19543,-7.952035 -12.11178,-14.769971 -20.08336,-19.92759 -10.49446,-6.736908 -22.89547,-10.504964 -35.37847,-10.552743 -0.77009,-0.01759 -1.54015,0.0085 -2.31025,0.01407 z m 1.70508,26.541016 c 6.96436,-0.04578 13.97301,1.946414 19.6967,5.956719 5.84013,4.086578 10.51315,9.777095 13.61936,16.17671 4.18165,8.6828 5.23652,18.60135 4.24208,28.10937 -0.88766,8.51909 -4.07911,16.85715 -9.53657,23.50142 -4.65788,5.81619 -10.97953,10.44268 -18.22571,12.40182 -6.36252,1.72928 -13.20329,1.73604 -19.56429,-0.004 -8.79129,-2.397 -16.16437,-8.63902 -21.01282,-16.23395 -4.74398,-7.32374 -6.95783,-16.07231 -7.10978,-24.74533 -0.22163,-9.0665 1.58673,-18.34998 6.27106,-26.200148 4.29471,-7.20479 10.66793,-13.38968 18.52817,-16.533034 4.1512,-1.663524 8.62708,-2.434006 13.0918,-2.429687 z" /><path
       id="path42"
       style="display:inline;fill:#37ecff;fill-opacity:1;stroke:none;stroke-width:0.821209;stroke-miterlimit:7;paint-order:markers stroke fill"
       d="M 696.12572,96.603746 A 117.62111,115.74986 0 0 0 578.5046,212.3536 117.62111,115.74986 0 0 0 696.12572,328.10347 117.62111,115.74986 0 0 0 813.74682,212.3536 117.62111,115.74986 0 0 0 696.12572,96.603746 Z m -45.94576,39.481934 c 8.29496,-0.37794 15.08493,4.83762 17.94391,10.94545 4.15854,8.88411 3.00673,15.59354 -11.62577,28.82518 -14.63251,13.23165 -13.04258,36.52804 -13.04258,36.52804 -0.0226,0.34398 -1.47783,23.33386 13.04525,36.46656 14.63248,13.23163 15.78297,19.94107 11.62444,28.82518 -4.15852,8.88411 -16.63382,15.87795 -29.95997,6.5213 -13.32616,-9.35667 -33.9952,-40.01554 -35.06446,-71.87453 1.09378,-31.83689 21.74554,-62.46238 35.06312,-71.81303 4.16445,-2.92394 8.24563,-4.25237 12.01606,-4.42415 z m 91.98105,0 c 3.77046,0.17178 7.85297,1.50021 12.0174,4.42415 13.32,9.35235 33.9749,39.9873 35.06179,71.83041 -1.07622,31.85274 -21.74074,62.50218 -35.06445,71.85715 -13.32617,9.35665 -25.80144,2.36281 -29.95998,-6.5213 -4.15851,-8.88411 -3.00806,-15.59355 11.62444,-28.82518 14.52307,-13.1327 13.06791,-36.12258 13.04526,-36.46656 0,0 1.58991,-23.29639 -13.04258,-36.52804 -14.63251,-13.23164 -15.78431,-19.94107 -11.62578,-28.82518 2.85897,-6.10783 9.64895,-11.32339 17.9439,-10.94545 z m -45.76796,50.87246 a 25.26181,24.125693 0 0 1 25.2618,24.1257 25.26181,24.125693 0 0 1 -25.2618,24.12568 25.26181,24.125693 0 0 1 -25.26182,-24.12568 25.26181,24.125693 0 0 1 25.26182,-24.1257 z" /><path
       style="font-size:192px;font-family:'Geometr415 Blk BT';-inkscape-font-specification:'Geometr415 Blk BT';fill:#37ecff;fill-opacity:1;stroke:#000000;stroke-width:0;stroke-miterlimit:7;paint-order:markers fill stroke"
       d="m 463.1578,143.55271 h -8.50684 v 59.99557 h 10.89472 q 19.55079,0 29.84855,-7.90986 10.29775,-7.90986 10.29775,-22.68489 0,-15.52125 -9.99927,-22.38641 -9.99926,-7.01441 -32.53491,-7.01441 z M 404.50539,320.55459 V 104.15262 h 55.66755 q 26.71445,0 41.34024,3.58183 14.77503,3.43258 26.11747,11.64093 12.08867,8.65609 18.65535,21.49096 6.71593,12.68563 6.71593,26.86369 0,20.44625 -10.447,35.81825 -10.29775,15.372 -29.84854,24.02809 l 65.96528,92.97822 H 519.7208 l -57.75695,-84.91912 h -7.31289 v 84.91912 z"
       id="path2" /><path
       style="font-size:192px;font-family:'Geometr415 Blk BT';-inkscape-font-specification:'Geometr415 Blk BT';fill:#37ecff;fill-opacity:1;stroke:#000000;stroke-width:0;stroke-miterlimit:7;paint-order:markers fill stroke"
       d="M 259.59069,320.55459 V 149.37317 h -68.8009 V 104.15262 H 379.7311 v 45.22055 h -68.50241 v 171.18142 z"
       id="path1" /><path
       style="font-size:192px;font-family:'Geometr415 Blk BT';-inkscape-font-specification:'Geometr415 Blk BT';fill:#37ecff;fill-opacity:1;stroke:#000000;stroke-width:0;stroke-miterlimit:7;paint-order:markers fill stroke"
       d="m 37.368256,259.36507 q 19.998527,12.2379 33.878102,17.16291 14.028817,4.92501 27.311421,4.92501 13.431841,0 21.490961,-5.82046 8.20834,-5.96971 8.20834,-15.22276 0,-13.28261 -28.953087,-29.84855 -4.626525,-2.68637 -7.163651,-4.1788 L 77.514553,218.17407 Q 56.17284,206.08541 45.875092,190.86265 q -10.29775,-15.22276 -10.29775,-34.47507 0,-26.11747 19.700042,-42.83266 19.700042,-16.715188 50.891776,-16.715188 11.49169,0 24.92354,2.686369 13.43184,2.686369 29.84854,8.357589 v 50.74254 q -15.67049,-9.85002 -29.6993,-15.22277 -14.02882,-5.37273 -23.87884,-5.37273 -10.89472,0 -17.162914,4.77577 -6.268195,4.62652 -6.268195,12.68563 0,5.67122 3.731068,10.59623 3.731069,4.92502 11.193206,8.95456 l 25.371265,14.02882 q 31.7887,17.61064 42.68343,32.53491 11.04396,14.92428 11.04396,35.37053 0,31.63947 -21.6402,51.19027 -21.49095,19.40155 -57.15997,19.40155 -12.088662,0 -26.266723,-2.53713 -14.178059,-2.53712 -31.191732,-7.90986 z"
       id="text6" /></g></svg>
